<svg xmlns="http://www.w3.org/2000/svg" viewBox="0 0 32 32" fill="white">
  <path d="M16 .4C7.4.4.4 7.4.4 16c0 2.8.7 5.4 2.1 7.7L.3 31.7l8.3-2.2c2.2 1.2 4.7 1.9 7.4 1.9 8.6 0 15.6-7 15.6-15.6S24.6.4 16 .4zm0 28.4c-2.3 0-4.5-.6-6.4-1.7l-.5-.3-4.9 1.3 1.3-4.8-.3-.5c-1.2-2-1.8-4.3-1.8-6.7 0-7 5.7-12.7 12.7-12.7S28.7 9 28.7 16 23 28.8 16 28.8zm7.1-9.7c-.4-.2-2.3-1.1-2.7-1.2-.4-.1-.6-.2-.9.2-.2.4-1 1.2-1.2 1.5-.2.2-.5.3-.9.1-.4-.2-1.7-.6-3.2-1.9-1.2-1-2-2.2-2.2-2.6-.2-.4 0-.6.1-.8.1-.1.4-.5.5-.7.2-.2.2-.4.3-.6.1-.2 0-.5 0-.7 0-.2-.9-2.2-1.2-3-.3-.7-.6-.6-.9-.6h-.8c-.3 0-.7.1-1 .5-.3.4-1.4 1.4-1.4 3.5s1.4 4.1 1.6 4.4c.2.3 2.7 4.1 6.5 5.7.9.4 1.7.7 2.3.9 1 .3 1.9.3 2.6.2.8-.1 2.3-.9 2.6-1.8.3-.9.3-1.6.2-1.8-.1-.2-.4-.3-.8-.5z"/>
</svg>